<?xml version="1.0" encoding="utf-8"?>
<!-- Generator: Adobe Illustrator 15.0.2, SVG Export Plug-In . SVG Version: 6.00 Build 0)  -->
<!DOCTYPE svg PUBLIC "-//W3C//DTD SVG 1.1//EN" "http://www.w3.org/Graphics/SVG/1.1/DTD/svg11.dtd">
<svg version="1.1" id="Layer_1" xmlns="http://www.w3.org/2000/svg" xmlns:xlink="http://www.w3.org/1999/xlink" x="0px" y="0px"
	 width="1024px" height="768px" viewBox="0 0 1024 768" enable-background="new 0 0 1024 768" xml:space="preserve">
<rect fill="#FFFFFF" width="1024" height="768"/>
<g>
	<defs>
		<rect id="SVGID_1_" width="1024" height="768"/>
	</defs>
	<clipPath id="SVGID_2_">
		<use xlink:href="#SVGID_1_"  overflow="visible"/>
	</clipPath>
	<rect clip-path="url(#SVGID_2_)" fill="#2466B1" width="1024" height="768"/>
</g>
<g>
	<defs>
		<rect id="SVGID_3_" x="555.413" y="502.562" width="228.743" height="228.875"/>
	</defs>
	<clipPath id="SVGID_4_">
		<use xlink:href="#SVGID_3_"  overflow="visible"/>
	</clipPath>
	<g clip-path="url(#SVGID_4_)">
		<defs>
			<rect id="SVGID_5_" x="577.474" y="504.153" width="186.807" height="225.693"/>
		</defs>
		<clipPath id="SVGID_6_">
			<use xlink:href="#SVGID_5_"  overflow="visible"/>
		</clipPath>
		<path clip-path="url(#SVGID_6_)" fill-rule="evenodd" clip-rule="evenodd" fill="#FFFFFF" d="M660.334,558.023
			c-0.367,3.622-1.421,7.128-3.112,10.349l27.44,28.035c3.926-1.893,8.197-2.944,12.574-3.097l11.427-37.674
			c-2.918-2.165-5.402-4.872-7.312-7.964L660.334,558.023z M655.76,539.386l41.605-10.499c1.867-13.996,13.858-24.733,28.276-24.733
			c15.752,0,28.528,12.784,28.528,28.545c0,15.37-12.149,27.907-27.358,28.521l-11.274,37.166
			c8.89,5.778,14.368,15.698,14.368,26.485c0,9.053-3.854,17.56-10.495,23.514l12.344,24.652c1.322-0.188,2.659-0.28,3.999-0.28
			c15.752,0,28.528,12.784,28.528,28.545s-12.776,28.545-28.528,28.545c-15.753,0-28.53-12.784-28.53-28.545
			c0-7.3,2.77-14.233,7.69-19.494l-12.809-25.581c-1.247,0.149-2.503,0.225-3.761,0.225c-6.391,0-12.558-1.918-17.778-5.488
			l-14.503,12.78c0.098,0.75,0.146,1.508,0.146,2.268c0,9.615-7.795,17.417-17.406,17.417s-17.407-7.802-17.407-17.417
			c0-9.617,7.796-17.418,17.407-17.418c1.659,0,3.301,0.235,4.883,0.696l15.107-13.312c-0.77-2.047-1.32-4.168-1.649-6.331
			l-36.015-4.854c-4.928,9.163-14.536,15.019-25.127,15.019c-15.752,0-28.528-12.784-28.528-28.545s12.776-28.544,28.528-28.544
			c13.859,0,25.562,9.946,28.043,23.28l36.009,4.854c0.24-0.483,0.492-0.961,0.757-1.433l-27.515-28.111
			c-3.57,1.551-7.422,2.35-11.344,2.35c-15.752,0-28.528-12.783-28.528-28.545c0-15.761,12.776-28.545,28.528-28.545
			C641.621,526.573,650.521,531.452,655.76,539.386"/>
	</g>
</g>
<g>
	<defs>
		<rect id="SVGID_7_" x="262.027" y="520.471" width="171.072" height="171.071"/>
	</defs>
	<clipPath id="SVGID_8_">
		<use xlink:href="#SVGID_7_"  overflow="visible"/>
	</clipPath>
	<g clip-path="url(#SVGID_8_)">
		<defs>
			<rect id="SVGID_9_" x="262.027" y="520.471" width="171.072" height="171.059"/>
		</defs>
		<clipPath id="SVGID_10_">
			<use xlink:href="#SVGID_9_"  overflow="visible"/>
		</clipPath>
		<path clip-path="url(#SVGID_10_)" fill="#FFFFFF" d="M305.176,595.07l-24.48-42.4c15.673-19.624,39.8-32.199,66.867-32.199
			c31.313,0,58.691,16.829,73.596,41.933h-69.793c-1.253-0.109-2.521-0.168-3.803-0.168
			C327.203,562.235,310.045,576.21,305.176,595.07 M378.187,574.766h49.025c3.799,9.678,5.887,20.215,5.887,31.24
			c0,46.916-37.773,85.002-84.564,85.523l34.981-60.59c4.925-7.079,7.817-15.675,7.817-24.934
			C391.333,593.782,386.294,582.714,378.187,574.766 M316.49,606.006c0-17.134,13.939-31.073,31.073-31.073
			c17.134,0,31.074,13.939,31.074,31.073s-13.939,31.074-31.074,31.074C330.429,637.08,316.49,623.14,316.49,606.006
			 M359.288,648.18L334.8,690.593c-41.186-6.162-72.773-41.684-72.773-84.587c0-15.239,3.99-29.544,10.976-41.937l34.921,60.486
			c6.994,14.887,22.131,25.221,39.639,25.221C351.623,649.776,355.555,649.219,359.288,648.18"/>
	</g>
</g>
<g>
	<defs>
		<rect id="SVGID_11_" x="722.033" y="107.681" width="171.06" height="171.059"/>
	</defs>
	<clipPath id="SVGID_12_">
		<use xlink:href="#SVGID_11_"  overflow="visible"/>
	</clipPath>
	<g clip-path="url(#SVGID_12_)">
		<defs>
			<rect id="SVGID_13_" x="743.416" y="107.681" width="128.295" height="171.059"/>
		</defs>
		<clipPath id="SVGID_14_">
			<use xlink:href="#SVGID_13_"  overflow="visible"/>
		</clipPath>
		<path clip-path="url(#SVGID_14_)" fill="#FFFEFE" d="M807.563,278.74c-35.42,0-64.147-14.358-64.147-32.073V228.62
			c0,17.726,28.728,28.738,64.147,28.738s64.146-11.012,64.146-28.738v18.047C871.71,264.382,842.983,278.74,807.563,278.74
			 M807.563,246.667c-35.42,0-64.147-14.358-64.147-32.074v-18.047c0,17.726,28.728,28.738,64.147,28.738
			s64.146-11.012,64.146-28.738v18.047C871.71,232.308,842.983,246.667,807.563,246.667 M807.563,214.593
			c-35.42,0-64.147-14.358-64.147-32.074v-18.046c0,17.726,28.728,28.738,64.147,28.738s64.146-11.012,64.146-28.738v18.046
			C871.71,200.234,842.983,214.593,807.563,214.593 M807.563,182.519c-35.42,0-64.147-14.358-64.147-32.074v-10.691
			c0-17.715,28.728-32.074,64.147-32.074s64.146,14.358,64.146,32.074v10.691C871.71,168.161,842.983,182.519,807.563,182.519"/>
	</g>
</g>
<g>
	<defs>
		<rect id="SVGID_15_" width="1024" height="768"/>
	</defs>
	<clipPath id="SVGID_16_">
		<use xlink:href="#SVGID_15_"  overflow="visible"/>
	</clipPath>
	<rect x="18" y="399" clip-path="url(#SVGID_16_)" fill="#FFFFFF" width="988" height="34"/>
	<polyline clip-path="url(#SVGID_16_)" fill="none" stroke="#FFFFFF" stroke-width="6" points="189,373 189,370.153 189,315.919 
		189,313 	"/>
	<polygon clip-path="url(#SVGID_16_)" fill="#FFFFFF" points="201,316 189,292 177,316 	"/>
	<polygon clip-path="url(#SVGID_16_)" fill="#FFFFFF" points="177,370 189,394 201,370 	"/>
	<polyline clip-path="url(#SVGID_16_)" fill="none" stroke="#FFFFFF" stroke-width="6" points="522,373 522,370.153 522,315.919 
		522,313 	"/>
	<polygon clip-path="url(#SVGID_16_)" fill="#FFFFFF" points="534,316 522,292 510,316 	"/>
	<polygon clip-path="url(#SVGID_16_)" fill="#FFFFFF" points="510,370 522,394 534,370 	"/>
	<polyline clip-path="url(#SVGID_16_)" fill="none" stroke="#FFFFFF" stroke-width="6" points="808,373 808,370.153 808,315.919 
		808,313 	"/>
	<polygon clip-path="url(#SVGID_16_)" fill="#FFFFFF" points="820,316 808,292 796,316 	"/>
	<polygon clip-path="url(#SVGID_16_)" fill="#FFFFFF" points="796,370 808,394 820,370 	"/>
	<polyline clip-path="url(#SVGID_16_)" fill="none" stroke="#FFFFFF" stroke-width="6" points="348,492 348,488.966 348,461.688 
		348,459 	"/>
	<polygon clip-path="url(#SVGID_16_)" fill="#FFFFFF" points="360,462 348,438 336,462 	"/>
	<polygon clip-path="url(#SVGID_16_)" fill="#FFFFFF" points="336,489 348,513 360,489 	"/>
	<polyline clip-path="url(#SVGID_16_)" fill="none" stroke="#FFFFFF" stroke-width="6" points="671,492 671,488.966 671,461.688 
		671,459 	"/>
	<polygon clip-path="url(#SVGID_16_)" fill="#FFFFFF" points="683,462 671,438 659,462 	"/>
	<polygon clip-path="url(#SVGID_16_)" fill="#FFFFFF" points="659,489 671,513 683,489 	"/>
</g>
<g>
	<defs>
		<rect id="SVGID_17_" x="48.236" y="63.156" width="281.71" height="281.711"/>
	</defs>
	<clipPath id="SVGID_18_">
		<use xlink:href="#SVGID_17_"  overflow="visible"/>
	</clipPath>
	<g clip-path="url(#SVGID_18_)">
		<defs>
			<rect id="SVGID_19_" x="53.641" y="92.867" width="269.845" height="185.973"/>
		</defs>
		<clipPath id="SVGID_20_">
			<use xlink:href="#SVGID_19_"  overflow="visible"/>
		</clipPath>
		<path clip-path="url(#SVGID_20_)" fill="#FFFFFF" d="M280.427,166.596c1.651-28.061-17.606-49.519-44.017-49.519
			c-8.803,0-17.057,2.201-24.76,6.603c-14.306-19.808-34.113-30.812-56.122-30.812s-42.367,11.004-54.471,29.162
			c-9.354,14.306-12.655,31.362-8.253,48.419c-33.013,14.306-41.816,41.816-38.515,62.174c3.852,26.411,25.31,45.668,50.62,45.668
			c1.1,0,98.488,0.55,157.912,0.55c39.065,0,58.873-27.511,60.523-52.821C324.995,202.911,312.34,175.95,280.427,166.596
			 M301.335,224.369c-1.101,15.956-13.755,32.463-38.515,32.463c-58.874,0-156.812-0.55-157.912-0.55
			c-16.507,0-26.961-13.755-29.162-26.961c-2.751-18.707,9.904-34.664,34.113-41.816c4.952-1.65,9.904-7.703,7.153-14.856
			c-13.205-31.912,12.105-57.772,38.515-57.772c17.607,0,33.013,11.004,43.467,30.262c3.301,6.053,12.104,8.253,17.607,2.751
			c5.502-5.502,12.655-8.804,19.808-8.804c17.057,0,25.31,15.406,20.908,33.563c-1.65,6.603,3.301,12.655,8.804,13.206
			C291.981,189.706,302.436,207.863,301.335,224.369"/>
		<path clip-path="url(#SVGID_20_)" fill="#FFFFFF" d="M151.676,125.88c-22.559,2.201-29.711,20.358-28.611,31.913
			c0.55,4.952,4.402,8.803,9.354,8.803c6.052,0,10.454-4.952,9.904-10.454c0-2.201,0-9.904,11.004-11.004
			c5.502-0.55,9.354-4.952,8.803-10.454C161.58,129.182,157.179,125.33,151.676,125.88"/>
	</g>
</g>
<g>
	<defs>
		<rect id="SVGID_21_" x="381.645" y="63.156" width="281.711" height="281.711"/>
	</defs>
	<clipPath id="SVGID_22_">
		<use xlink:href="#SVGID_21_"  overflow="visible"/>
	</clipPath>
	<g clip-path="url(#SVGID_22_)">
		<defs>
			<rect id="SVGID_23_" x="387.05" y="92.867" width="269.845" height="185.973"/>
		</defs>
		<clipPath id="SVGID_24_">
			<use xlink:href="#SVGID_23_"  overflow="visible"/>
		</clipPath>
		<path clip-path="url(#SVGID_24_)" fill="#FFFFFF" d="M613.837,166.596c1.65-28.061-17.607-49.519-44.018-49.519
			c-8.804,0-17.057,2.201-24.76,6.603c-14.306-19.808-34.113-30.812-56.122-30.812s-42.367,11.004-54.472,29.162
			c-9.354,14.306-12.655,31.362-8.253,48.419c-33.013,14.306-41.816,41.816-38.515,62.174c3.852,26.411,25.31,45.668,50.62,45.668
			c1.101,0,98.489,0.55,157.912,0.55c39.065,0,58.873-27.511,60.524-52.821C658.404,202.911,645.749,175.95,613.837,166.596
			 M634.745,224.369c-1.101,15.956-13.756,32.463-38.516,32.463c-58.873,0-156.812-0.55-157.912-0.55
			c-16.506,0-26.96-13.755-29.161-26.961c-2.751-18.707,9.904-34.664,34.113-41.816c4.952-1.65,9.904-7.703,7.153-14.856
			c-13.205-31.912,12.104-57.772,38.515-57.772c17.607,0,33.013,11.004,43.467,30.262c3.302,6.053,12.105,8.253,17.607,2.751
			c5.502-5.502,12.654-8.804,19.808-8.804c17.057,0,25.31,15.406,20.908,33.563c-1.65,6.603,3.302,12.655,8.804,13.206
			C625.391,189.706,635.846,207.863,634.745,224.369"/>
		<path clip-path="url(#SVGID_24_)" fill="#FFFFFF" d="M485.086,125.88c-22.559,2.201-29.712,20.358-28.611,31.913
			c0.55,4.952,4.402,8.803,9.354,8.803c6.053,0,10.454-4.952,9.904-10.454c0-2.201,0-9.904,11.004-11.004
			c5.502-0.55,9.354-4.952,8.803-10.454C494.99,129.182,490.588,125.33,485.086,125.88"/>
	</g>
</g>
</svg>
